<?xml version="1.0" encoding="utf-8"?>
<!-- Generator: Adobe Illustrator 25.2.0, SVG Export Plug-In . SVG Version: 6.00 Build 0)  -->
<svg version="1.1" id="Layer_1" xmlns="http://www.w3.org/2000/svg" xmlns:xlink="http://www.w3.org/1999/xlink" x="0px" y="0px"
	 viewBox="0 0 1920 1280" style="enable-background:new 0 0 1920 1280;" xml:space="preserve">
<style type="text/css">
	.st0{fill:#1B9AC4;}
	.st1{fill:#662480;}
	.st2{fill:#F8B50C;}
	.st3{fill:none;stroke:#95C020;stroke-width:9.7216;stroke-miterlimit:10;}
	.st4{stroke:#951B8A;stroke-width:9.7216;stroke-miterlimit:10;}
	.st5{fill:none;stroke:#BE1322;stroke-width:9.7216;stroke-miterlimit:10;}
	.st6{fill:#951B8A;}
	.st7{fill:#EF80B6;}
	.st8{fill:#70C2A1;}
	.st9{fill:none;stroke:#951B8A;stroke-width:9.7216;stroke-miterlimit:10;}
	.st10{fill:none;stroke:#70C2A1;stroke-width:9.7216;stroke-miterlimit:10;}
	.st11{fill:#95C020;}
	.st12{fill:none;stroke:#F8B50C;stroke-width:9.7216;stroke-miterlimit:10;}
</style>
<rect x="473.4" y="438.3" transform="matrix(0.6144 -0.789 0.789 0.6144 -197.7909 588.3958)" class="st0" width="59.3" height="116.5"/>
<rect x="734.1" y="818.4" transform="matrix(0.6818 -0.7316 0.7316 0.6818 -377.5415 829.0881)" class="st1" width="60.3" height="60.3"/>
<ellipse transform="matrix(0.7071 -0.7071 0.7071 0.7071 -0.5813 277.7618)" class="st2" cx="335" cy="139.6" rx="119.1" ry="119.1"/>
<line class="st3" x1="458.3" y1="591.2" x2="536.9" y2="649.2"/>
<line class="st3" x1="547.1" y1="686.1" x2="742.7" y2="855.5"/>
<path class="st4" d="M381.4,884.2c3.8,0,112.2,110.9,112.2,110.9"/>
<line class="st5" x1="809.2" y1="536.6" x2="913.8" y2="681.4"/>
<rect x="1460.6" y="193.8" transform="matrix(0.983 -0.1834 0.1834 0.983 -15.7853 277.2077)" class="st6" width="60.3" height="60.3"/>
<rect x="1249.4" y="248.4" transform="matrix(0.6144 -0.789 0.789 0.6144 284.8562 1138.9929)" class="st7" width="116.5" height="59.3"/>
<rect x="978.9" y="872.5" transform="matrix(9.509502e-02 -0.9955 0.9955 9.509502e-02 39.693 1849.5284)" class="st7" width="116.5" height="60.8"/>
<circle class="st8" cx="1096.2" cy="416" r="119.1"/>
<line class="st9" x1="1207.1" y1="276.7" x2="1239.4" y2="433.7"/>
<line class="st10" x1="1133.6" y1="535.9" x2="1133.6" y2="844.7"/>
<line class="st5" x1="1586.6" y1="538.7" x2="1691.2" y2="683.4"/>
<rect x="321.6" y="1005.9" transform="matrix(0.4079 -0.913 0.913 0.4079 -761.4235 953.4299)" class="st11" width="65.6" height="115.7"/>
<line class="st12" x1="640.3" y1="945.8" x2="640.3" y2="1250.8"/>
<circle class="st0" cx="1542.1" cy="1077.8" r="119.1"/>
</svg>
