<svg xmlns="http://www.w3.org/2000/svg" width="1920.015" height="4075.007" viewBox="0 0 1920.015 4075.007">
  <g id="confetti_background_1920" data-name="confetti background 1920" transform="translate(-0.014)">
    <rect id="Rectangle_4" data-name="Rectangle 4" width="27.8" height="49.1" transform="matrix(0.408, -0.913, 0.913, 0.408, 170.669, 1364.132)" fill="#95c020"/>
    <rect id="Rectangle_5" data-name="Rectangle 5" width="51.9" height="16.8" transform="matrix(0.831, -0.556, 0.556, 0.831, 29.06, 1469.018)" fill="#1b9ac4"/>
    <rect id="Rectangle_6" data-name="Rectangle 6" width="47.4" height="16.8" transform="matrix(0.619, -0.785, 0.785, 0.619, 854.799, 1478.103)" fill="#f09112"/>
    <rect id="Rectangle_7" data-name="Rectangle 7" width="16.8" height="47.4" transform="translate(881.803 1680.428) rotate(-76.832)" fill="#70c2a1"/>
    <rect id="Rectangle_8" data-name="Rectangle 8" width="12.8" height="75.1" transform="matrix(0.866, -0.5, 0.5, 0.866, 753.461, 1584.491)" fill="#95c020"/>
    <rect id="Rectangle_9" data-name="Rectangle 9" width="42.7" height="8" transform="translate(750.1 1775.1)" fill="#cabcae"/>
    <rect id="Rectangle_10" data-name="Rectangle 10" width="25.6" height="25.6" transform="translate(631.031 1693.309) rotate(-10.568)" fill="#951b8a"/>
    <rect id="Rectangle_11" data-name="Rectangle 11" width="49.3" height="25.6" transform="translate(837.714 1898.432) rotate(-4.105)" fill="#2ea262"/>
    <rect id="Rectangle_12" data-name="Rectangle 12" width="25.6" height="25.6" transform="translate(856.389 2046.85) rotate(-45)" fill="#f8b50c"/>
    <rect id="Rectangle_13" data-name="Rectangle 13" width="49.4" height="25.1" transform="matrix(0.614, -0.789, 0.789, 0.614, 388.217, 1784.076)" fill="#ef80b6"/>
    <rect id="Rectangle_14" data-name="Rectangle 14" width="25.1" height="49.4" transform="matrix(0.614, -0.789, 0.789, 0.614, 351.417, 2047.418)" fill="#1b9ac4"/>
    <rect id="Rectangle_15" data-name="Rectangle 15" width="12.5" height="49.4" transform="translate(9.059 2224.638) rotate(-72.116)" fill="#1b9ac4"/>
    <rect id="Rectangle_16" data-name="Rectangle 16" width="49.4" height="12.5" transform="translate(14.807 2389.366) rotate(-53.949)" fill="#f8b50c"/>
    <rect id="Rectangle_17" data-name="Rectangle 17" width="49.4" height="25.8" transform="matrix(0.095, -0.996, 0.996, 0.095, 54.083, 2590.239)" fill="#ef80b6"/>
    <rect id="Rectangle_18" data-name="Rectangle 18" width="24.7" height="25.1" transform="matrix(0.986, -0.169, 0.169, 0.986, 25.442, 1815.813)" fill="#e50f7a"/>
    <rect id="Rectangle_19" data-name="Rectangle 19" width="26.1" height="26.1" transform="matrix(0.408, -0.913, 0.913, 0.408, 392.942, 1392.055)" fill="#cabcae"/>
    <rect id="Rectangle_20" data-name="Rectangle 20" width="25.6" height="25.6" transform="translate(585.668 2056.25) rotate(-5.401)" fill="#cabcae"/>
    <rect id="Rectangle_21" data-name="Rectangle 21" width="25.6" height="25.6" transform="translate(845.302 2347.388) rotate(-47.018)" fill="#1b9ac4"/>
    <rect id="Rectangle_22" data-name="Rectangle 22" width="25.6" height="25.6" transform="translate(692.555 2500.696) rotate(-47.018)" fill="#662480"/>
    <rect id="Rectangle_23" data-name="Rectangle 23" width="47.5" height="16" transform="matrix(0.389, -0.921, 0.921, 0.389, 527.668, 2635.812)" fill="#70c2a1"/>
    <circle id="Ellipse_11" data-name="Ellipse 11" cx="50.4" cy="50.4" r="50.4" transform="translate(112.979 1647.603) rotate(-88.093)" fill="#f8b50c"/>
    <circle id="Ellipse_12" data-name="Ellipse 12" cx="50.4" cy="50.4" r="50.4" transform="translate(725.1 1335)" fill="#1b9ac4"/>
    <circle id="Ellipse_13" data-name="Ellipse 13" cx="50.4" cy="50.4" r="50.4" transform="matrix(0.998, -0.055, 0.055, 0.998, 91.192, 1900.222)" fill="#70c2a1"/>
    <circle id="Ellipse_14" data-name="Ellipse 14" cx="50.4" cy="50.4" r="50.4" transform="translate(595.6 2215)" fill="#f8b50c"/>
    <line id="Line_1" data-name="Line 1" y2="109.5" transform="translate(254 1396.5)" fill="none" stroke="#f8b50c" stroke-width="9.722"/>
    <line id="Line_2" data-name="Line 2" x2="60.8" y2="45" transform="translate(452.3 1496.3)" fill="none" stroke="#be1322" stroke-width="9.722"/>
    <line id="Line_3" data-name="Line 3" x2="60.8" y2="45.1" transform="translate(737 2611)" fill="none" stroke="#be1322" stroke-width="9.722"/>
    <line id="Line_4" data-name="Line 4" x2="20.8" y2="21.8" transform="translate(455.7 1630.7)" fill="none" stroke="#1b9ac4" stroke-width="9.722"/>
    <line id="Line_5" data-name="Line 5" y2="129.3" transform="translate(562.2 1367)" fill="none" stroke="#f8b50c" stroke-width="9.722"/>
    <line id="Line_6" data-name="Line 6" y2="131" transform="translate(645.8 1473.8)" fill="none" stroke="#70c2a1" stroke-width="9.722"/>
    <line id="Line_7" data-name="Line 7" x1="62.9" y2="30.6" transform="translate(543.8 1889.6)" fill="none" stroke="#f8b50c" stroke-width="9.722"/>
    <line id="Line_8" data-name="Line 8" x2="13.7" y2="66.5" transform="translate(299.1 1837.1)" fill="none" stroke="#951b8a" stroke-width="9.722"/>
    <line id="Line_9" data-name="Line 9" x2="33.3" y2="24.6" transform="translate(355 2197.6)" fill="none" stroke="#95c020" stroke-width="9.722"/>
    <line id="Line_10" data-name="Line 10" y2="130.9" transform="translate(191.9 2230.9)" fill="none" stroke="#70c2a1" stroke-width="9.722"/>
    <path id="Path_16" data-name="Path 16" d="M335,2385.6c1.6,0,71.8,11.1,71.8,11.1" stroke="#be1322" stroke-width="9.722"/>
    <line id="Line_11" data-name="Line 11" x2="82.9" y2="71.8" transform="translate(517.6 2365.5)" fill="none" stroke="#95c020" stroke-width="9.722"/>
    <line id="Line_12" data-name="Line 12" x2="69.7" y2="29.6" transform="translate(828.5 2503.8)" fill="none" stroke="#95c020" stroke-width="9.722"/>
    <path id="Path_17" data-name="Path 17" d="M275.3,2590.9c1.6,0,47.5,47,47.5,47" stroke="#951b8a" stroke-width="9.722"/>
    <line id="Line_13" data-name="Line 13" x2="44.3" y2="61.4" transform="translate(812.2 2164.9)" fill="none" stroke="#be1322" stroke-width="9.722"/>
    <line id="Line_14" data-name="Line 14" x1="7.4" y2="27.8" transform="translate(86.9 2060)" fill="none" stroke="#cabcae" stroke-width="9.722"/>
    <line id="Line_15" data-name="Line 15" x1="36.6" y2="19.1" transform="translate(173.6 1728.8)" fill="none" stroke="#70c2a1" stroke-width="9.722"/>
    <line id="Line_16" data-name="Line 16" x1="36.6" y2="19.1" transform="translate(730.8 2024.1)" fill="none" stroke="#70c2a1" stroke-width="9.722"/>
    <line id="Line_17" data-name="Line 17" x1="39.3" y2="52.8" transform="translate(195.8 2069)" fill="none" stroke="#ef80b6" stroke-width="9.722"/>
    <rect id="Rectangle_24" data-name="Rectangle 24" width="27.8" height="49.1" transform="matrix(0.408, -0.913, 0.913, 0.408, 1158.933, 1366.727)" fill="#95c020"/>
    <rect id="Rectangle_25" data-name="Rectangle 25" width="51.9" height="16.8" transform="matrix(0.831, -0.556, 0.556, 0.831, 1017.361, 1471.711)" fill="#1b9ac4"/>
    <rect id="Rectangle_26" data-name="Rectangle 26" width="47.4" height="16.8" transform="matrix(0.619, -0.785, 0.785, 0.619, 1843.036, 1480.738)" fill="#f09112"/>
    <rect id="Rectangle_27" data-name="Rectangle 27" width="16.8" height="47.4" transform="translate(1870.049 1682.98) rotate(-76.832)" fill="#70c2a1"/>
    <rect id="Rectangle_28" data-name="Rectangle 28" width="12.8" height="75.1" transform="matrix(0.866, -0.5, 0.5, 0.866, 1741.717, 1587.013)" fill="#95c020"/>
    <rect id="Rectangle_29" data-name="Rectangle 29" width="42.7" height="8" transform="translate(1738.4 1777.7)" fill="#cabcae"/>
    <rect id="Rectangle_30" data-name="Rectangle 30" width="25.6" height="25.6" transform="translate(1619.4 1695.907) rotate(-10.568)" fill="#951b8a"/>
    <rect id="Rectangle_31" data-name="Rectangle 31" width="49.3" height="25.6" transform="translate(1825.881 1900.937) rotate(-4.105)" fill="#2ea262"/>
    <rect id="Rectangle_32" data-name="Rectangle 32" width="25.6" height="25.6" transform="translate(1844.669 2049.519) rotate(-45)" fill="#f8b50c"/>
    <rect id="Rectangle_33" data-name="Rectangle 33" width="49.4" height="25.1" transform="matrix(0.614, -0.789, 0.789, 0.614, 1376.527, 1786.632)" fill="#ef80b6"/>
    <rect id="Rectangle_34" data-name="Rectangle 34" width="25.1" height="49.4" transform="matrix(0.614, -0.789, 0.789, 0.614, 1339.781, 2050.07)" fill="#1b9ac4"/>
    <rect id="Rectangle_35" data-name="Rectangle 35" width="12.5" height="49.4" transform="translate(997.454 2227.251) rotate(-72.116)" fill="#1b9ac4"/>
    <rect id="Rectangle_36" data-name="Rectangle 36" width="49.4" height="12.5" transform="translate(1003.172 2391.838) rotate(-53.949)" fill="#f8b50c"/>
    <rect id="Rectangle_37" data-name="Rectangle 37" width="49.4" height="25.8" transform="matrix(0.095, -0.996, 0.996, 0.095, 1042.428, 2592.719)" fill="#ef80b6"/>
    <rect id="Rectangle_38" data-name="Rectangle 38" width="24.7" height="25.1" transform="matrix(0.986, -0.169, 0.169, 0.986, 1013.711, 1818.413)" fill="#e50f7a"/>
    <rect id="Rectangle_39" data-name="Rectangle 39" width="26.1" height="26.1" transform="matrix(0.408, -0.913, 0.913, 0.408, 1381.206, 1394.651)" fill="#cabcae"/>
    <rect id="Rectangle_40" data-name="Rectangle 40" width="25.6" height="25.6" transform="translate(1574.107 2058.849) rotate(-5.401)" fill="#cabcae"/>
    <rect id="Rectangle_41" data-name="Rectangle 41" width="25.6" height="25.6" transform="translate(1833.624 2349.982) rotate(-47.018)" fill="#1b9ac4"/>
    <rect id="Rectangle_42" data-name="Rectangle 42" width="25.6" height="25.6" transform="translate(1680.919 2503.292) rotate(-47.018)" fill="#662480"/>
    <rect id="Rectangle_43" data-name="Rectangle 43" width="47.5" height="16" transform="matrix(0.389, -0.921, 0.921, 0.389, 1515.968, 2638.402)" fill="#70c2a1"/>
    <circle id="Ellipse_15" data-name="Ellipse 15" cx="50.4" cy="50.4" r="50.4" transform="translate(1103 1551.1)" fill="#f8b50c"/>
    <circle id="Ellipse_16" data-name="Ellipse 16" cx="50.4" cy="50.4" r="50.4" transform="translate(1713.4 1337.6)" fill="#1b9ac4"/>
    <circle id="Ellipse_17" data-name="Ellipse 17" cx="50.4" cy="50.4" r="50.4" transform="translate(1082.3 1899.9)" fill="#70c2a1"/>
    <circle id="Ellipse_18" data-name="Ellipse 18" cx="50.4" cy="50.4" r="50.4" transform="translate(1584 2217.6)" fill="#f8b50c"/>
    <line id="Line_18" data-name="Line 18" y2="109.5" transform="translate(1242.4 1399.1)" fill="none" stroke="#f8b50c" stroke-width="9.722"/>
    <line id="Line_19" data-name="Line 19" x2="60.8" y2="45" transform="translate(1440.7 1498.9)" fill="none" stroke="#be1322" stroke-width="9.722"/>
    <line id="Line_20" data-name="Line 20" x2="60.8" y2="45.1" transform="translate(1725.3 2613.6)" fill="none" stroke="#be1322" stroke-width="9.722"/>
    <line id="Line_21" data-name="Line 21" x2="20.9" y2="21.8" transform="translate(1444 1633.3)" fill="none" stroke="#1b9ac4" stroke-width="9.722"/>
    <line id="Line_22" data-name="Line 22" y2="129.3" transform="translate(1550.5 1369.6)" fill="none" stroke="#f8b50c" stroke-width="9.722"/>
    <line id="Line_23" data-name="Line 23" y2="131" transform="translate(1634.2 1476.4)" fill="none" stroke="#70c2a1" stroke-width="9.722"/>
    <line id="Line_24" data-name="Line 24" x1="62.8" y2="30.6" transform="translate(1532.2 1892.2)" fill="none" stroke="#f8b50c" stroke-width="9.722"/>
    <line id="Line_25" data-name="Line 25" x2="13.7" y2="66.5" transform="translate(1287.4 1839.7)" fill="none" stroke="#951b8a" stroke-width="9.722"/>
    <line id="Line_26" data-name="Line 26" x2="33.3" y2="24.6" transform="translate(1343.3 2200.2)" fill="none" stroke="#95c020" stroke-width="9.722"/>
    <line id="Line_27" data-name="Line 27" y2="130.9" transform="translate(1180.2 2233.5)" fill="none" stroke="#70c2a1" stroke-width="9.722"/>
    <path id="Path_18" data-name="Path 18" d="M1323.3,2388.2c1.6,0,71.8,11.1,71.8,11.1" stroke="#be1322" stroke-width="9.722"/>
    <line id="Line_28" data-name="Line 28" x2="82.9" y2="71.8" transform="translate(1505.9 2368.1)" fill="none" stroke="#95c020" stroke-width="9.722"/>
    <line id="Line_29" data-name="Line 29" x2="69.7" y2="29.6" transform="translate(1816.8 2506.4)" fill="none" stroke="#95c020" stroke-width="9.722"/>
    <path id="Path_19" data-name="Path 19" d="M1263.6,2593.5c1.6,0,47.5,47,47.5,47" stroke="#951b8a" stroke-width="9.722"/>
    <line id="Line_30" data-name="Line 30" x2="44.3" y2="61.4" transform="translate(1800.5 2167.5)" fill="none" stroke="#be1322" stroke-width="9.722"/>
    <line id="Line_31" data-name="Line 31" x1="7.4" y2="27.8" transform="translate(1075.2 2062.6)" fill="none" stroke="#cabcae" stroke-width="9.722"/>
    <line id="Line_32" data-name="Line 32" x1="36.6" y2="19.1" transform="translate(1161.9 1731.4)" fill="none" stroke="#70c2a1" stroke-width="9.722"/>
    <line id="Line_33" data-name="Line 33" x1="36.6" y2="19.1" transform="translate(1719.1 2026.7)" fill="none" stroke="#70c2a1" stroke-width="9.722"/>
    <line id="Line_34" data-name="Line 34" x1="39.3" y2="52.8" transform="translate(1184.2 2071.6)" fill="none" stroke="#ef80b6" stroke-width="9.722"/>
    <rect id="Rectangle_44" data-name="Rectangle 44" width="27.8" height="49.1" transform="matrix(0.408, -0.913, 0.913, 0.408, 161.673, 2776.483)" fill="#95c020"/>
    <rect id="Rectangle_45" data-name="Rectangle 45" width="51.9" height="16.8" transform="matrix(0.831, -0.556, 0.556, 0.831, 20.151, 2881.41)" fill="#1b9ac4"/>
    <rect id="Rectangle_46" data-name="Rectangle 46" width="47.4" height="16.8" transform="matrix(0.619, -0.785, 0.785, 0.619, 845.733, 2890.491)" fill="#f09112"/>
    <rect id="Rectangle_47" data-name="Rectangle 47" width="16.8" height="47.4" transform="translate(872.839 3092.892) rotate(-76.832)" fill="#70c2a1"/>
    <rect id="Rectangle_48" data-name="Rectangle 48" width="12.8" height="75.1" transform="matrix(0.866, -0.5, 0.5, 0.866, 744.444, 2996.899)" fill="#95c020"/>
    <rect id="Rectangle_49" data-name="Rectangle 49" width="42.7" height="8" transform="translate(741.1 3187.5)" fill="#cabcae"/>
    <rect id="Rectangle_50" data-name="Rectangle 50" width="25.6" height="25.6" transform="translate(622.033 3105.66) rotate(-10.568)" fill="#951b8a"/>
    <rect id="Rectangle_51" data-name="Rectangle 51" width="49.3" height="25.6" transform="translate(828.717 3310.783) rotate(-4.105)" fill="#2ea262"/>
    <rect id="Rectangle_52" data-name="Rectangle 52" width="25.6" height="25.6" transform="translate(847.246 3459.307) rotate(-45)" fill="#f8b50c"/>
    <rect id="Rectangle_53" data-name="Rectangle 53" width="49.4" height="25.1" transform="matrix(0.614, -0.789, 0.789, 0.614, 379.239, 3196.519)" fill="#ef80b6"/>
    <rect id="Rectangle_54" data-name="Rectangle 54" width="25.1" height="49.4" transform="matrix(0.614, -0.789, 0.789, 0.614, 342.364, 3459.879)" fill="#1b9ac4"/>
    <rect id="Rectangle_55" data-name="Rectangle 55" width="12.5" height="49.4" transform="translate(0.014 3637.244) rotate(-72.116)" fill="#1b9ac4"/>
    <rect id="Rectangle_56" data-name="Rectangle 56" width="49.4" height="12.5" transform="translate(5.938 3801.824) rotate(-53.949)" fill="#f8b50c"/>
    <rect id="Rectangle_57" data-name="Rectangle 57" width="49.4" height="25.8" transform="matrix(0.095, -0.996, 0.996, 0.095, 45.298, 4002.69)" fill="#ef80b6"/>
    <rect id="Rectangle_58" data-name="Rectangle 58" width="24.7" height="25.1" transform="matrix(0.986, -0.169, 0.169, 0.986, 16.542, 3228.256)" fill="#e50f7a"/>
    <rect id="Rectangle_59" data-name="Rectangle 59" width="26.1" height="26.1" transform="matrix(0.408, -0.913, 0.913, 0.408, 383.854, 2804.365)" fill="#cabcae"/>
    <rect id="Rectangle_60" data-name="Rectangle 60" width="25.6" height="25.6" transform="translate(576.655 3468.707) rotate(-5.401)" fill="#cabcae"/>
    <rect id="Rectangle_61" data-name="Rectangle 61" width="25.6" height="25.6" transform="translate(836.378 3759.889) rotate(-47.018)" fill="#1b9ac4"/>
    <rect id="Rectangle_62" data-name="Rectangle 62" width="25.6" height="25.6" transform="translate(683.558 3913.129) rotate(-47.018)" fill="#662480"/>
    <rect id="Rectangle_63" data-name="Rectangle 63" width="47.5" height="16" transform="matrix(0.389, -0.921, 0.921, 0.389, 518.68, 4048.215)" fill="#70c2a1"/>
    <circle id="Ellipse_19" data-name="Ellipse 19" cx="50.4" cy="50.4" r="50.4" transform="translate(105.176 2961.375) rotate(-0.584)" fill="#f8b50c"/>
    <circle id="Ellipse_20" data-name="Ellipse 20" cx="50.4" cy="50.4" r="50.4" transform="translate(716.1 2747.4)" fill="#1b9ac4"/>
    <circle id="Ellipse_21" data-name="Ellipse 21" cx="50.4" cy="50.4" r="50.4" transform="translate(84.581 3410.037) rotate(-89.479)" fill="#70c2a1"/>
    <circle id="Ellipse_22" data-name="Ellipse 22" cx="50.4" cy="50.4" r="50.4" transform="translate(586.6 3627.4)" fill="#f8b50c"/>
    <line id="Line_35" data-name="Line 35" y2="109.5" transform="translate(245 2809)" fill="none" stroke="#f8b50c" stroke-width="9.722"/>
    <line id="Line_36" data-name="Line 36" x2="60.8" y2="45" transform="translate(443.3 2908.7)" fill="none" stroke="#be1322" stroke-width="9.722"/>
    <line id="Line_37" data-name="Line 37" x2="60.8" y2="45" transform="translate(728 4023.5)" fill="none" stroke="#be1322" stroke-width="9.722"/>
    <line id="Line_38" data-name="Line 38" x2="20.8" y2="21.8" transform="translate(446.7 3043.1)" fill="none" stroke="#1b9ac4" stroke-width="9.722"/>
    <line id="Line_39" data-name="Line 39" y2="129.3" transform="translate(553.2 2779.4)" fill="none" stroke="#f8b50c" stroke-width="9.722"/>
    <line id="Line_40" data-name="Line 40" y2="131" transform="translate(636.8 2886.2)" fill="none" stroke="#70c2a1" stroke-width="9.722"/>
    <line id="Line_41" data-name="Line 41" x1="62.9" y2="30.6" transform="translate(534.8 3302)" fill="none" stroke="#f8b50c" stroke-width="9.722"/>
    <line id="Line_42" data-name="Line 42" x2="13.7" y2="66.5" transform="translate(290.1 3249.5)" fill="none" stroke="#951b8a" stroke-width="9.722"/>
    <line id="Line_43" data-name="Line 43" x2="33.3" y2="24.5" transform="translate(346 3610.1)" fill="none" stroke="#95c020" stroke-width="9.722"/>
    <line id="Line_44" data-name="Line 44" y2="130.9" transform="translate(182.9 3643.3)" fill="none" stroke="#70c2a1" stroke-width="9.722"/>
    <path id="Path_20" data-name="Path 20" d="M326,3798c1.6,0,71.8,11.1,71.8,11.1" stroke="#be1322" stroke-width="9.722"/>
    <line id="Line_45" data-name="Line 45" x2="82.9" y2="71.8" transform="translate(508.6 3777.9)" fill="none" stroke="#95c020" stroke-width="9.722"/>
    <line id="Line_46" data-name="Line 46" x2="69.7" y2="29.6" transform="translate(819.5 3916.2)" fill="none" stroke="#95c020" stroke-width="9.722"/>
    <path id="Path_21" data-name="Path 21" d="M266.3,4003.3c1.6,0,47.5,47,47.5,47" stroke="#951b8a" stroke-width="9.722"/>
    <line id="Line_47" data-name="Line 47" x2="44.3" y2="61.4" transform="translate(803.2 3577.3)" fill="none" stroke="#be1322" stroke-width="9.722"/>
    <line id="Line_48" data-name="Line 48" x1="7.4" y2="27.9" transform="translate(77.9 3472.4)" fill="none" stroke="#cabcae" stroke-width="9.722"/>
    <line id="Line_49" data-name="Line 49" x1="36.6" y2="19.1" transform="translate(164.6 3141.2)" fill="none" stroke="#70c2a1" stroke-width="9.722"/>
    <line id="Line_50" data-name="Line 50" x1="36.6" y2="19.2" transform="translate(721.8 3436.5)" fill="none" stroke="#70c2a1" stroke-width="9.722"/>
    <line id="Line_51" data-name="Line 51" x1="39.3" y2="52.8" transform="translate(186.8 3481.5)" fill="none" stroke="#ef80b6" stroke-width="9.722"/>
    <rect id="Rectangle_64" data-name="Rectangle 64" width="27.8" height="49.1" transform="matrix(0.408, -0.913, 0.913, 0.408, 1149.936, 2779.078)" fill="#95c020"/>
    <rect id="Rectangle_65" data-name="Rectangle 65" width="51.9" height="16.8" transform="matrix(0.831, -0.556, 0.556, 0.831, 1008.313, 2884.074)" fill="#1b9ac4"/>
    <rect id="Rectangle_66" data-name="Rectangle 66" width="47.4" height="16.8" transform="matrix(0.619, -0.785, 0.785, 0.619, 1833.927, 2893.12)" fill="#f09112"/>
    <rect id="Rectangle_67" data-name="Rectangle 67" width="16.8" height="47.4" transform="translate(1861.084 3095.443) rotate(-76.832)" fill="#70c2a1"/>
    <rect id="Rectangle_68" data-name="Rectangle 68" width="12.8" height="75.1" transform="matrix(0.866, -0.5, 0.5, 0.866, 1732.7, 2999.421)" fill="#95c020"/>
    <rect id="Rectangle_69" data-name="Rectangle 69" width="42.7" height="8" transform="translate(1729.4 3190.1)" fill="#cabcae"/>
    <rect id="Rectangle_70" data-name="Rectangle 70" width="25.6" height="25.6" transform="translate(1610.281 3108.161) rotate(-10.568)" fill="#951b8a"/>
    <rect id="Rectangle_71" data-name="Rectangle 71" width="49.3" height="25.6" transform="translate(1816.884 3313.389) rotate(-4.105)" fill="#2ea262"/>
    <rect id="Rectangle_72" data-name="Rectangle 72" width="25.6" height="25.6" transform="translate(1835.667 3461.975) rotate(-45)" fill="#f8b50c"/>
    <rect id="Rectangle_73" data-name="Rectangle 73" width="49.4" height="25.1" transform="matrix(0.614, -0.789, 0.789, 0.614, 1367.531, 3199.161)" fill="#ef80b6"/>
    <rect id="Rectangle_74" data-name="Rectangle 74" width="25.1" height="49.4" transform="matrix(0.614, -0.789, 0.789, 0.614, 1330.65, 3462.469)" fill="#1b9ac4"/>
    <rect id="Rectangle_75" data-name="Rectangle 75" width="12.5" height="49.4" transform="translate(988.44 3639.761) rotate(-72.116)" fill="#1b9ac4"/>
    <rect id="Rectangle_76" data-name="Rectangle 76" width="49.4" height="12.5" transform="translate(994.245 3804.377) rotate(-53.949)" fill="#f8b50c"/>
    <rect id="Rectangle_77" data-name="Rectangle 77" width="49.4" height="25.8" transform="matrix(0.095, -0.996, 0.996, 0.095, 1033.643, 4005.171)" fill="#ef80b6"/>
    <rect id="Rectangle_78" data-name="Rectangle 78" width="24.7" height="25.1" transform="matrix(0.986, -0.169, 0.169, 0.986, 1004.713, 3230.872)" fill="#e50f7a"/>
    <rect id="Rectangle_79" data-name="Rectangle 79" width="26.1" height="26.1" transform="matrix(0.408, -0.913, 0.913, 0.408, 1372.118, 2806.961)" fill="#cabcae"/>
    <rect id="Rectangle_80" data-name="Rectangle 80" width="25.6" height="25.6" transform="translate(1565.095 3471.306) rotate(-5.401)" fill="#cabcae"/>
    <rect id="Rectangle_81" data-name="Rectangle 81" width="25.6" height="25.6" transform="translate(1824.7 3762.484) rotate(-47.018)" fill="#1b9ac4"/>
    <rect id="Rectangle_82" data-name="Rectangle 82" width="25.6" height="25.6" transform="translate(1671.995 3915.794) rotate(-47.018)" fill="#662480"/>
    <rect id="Rectangle_83" data-name="Rectangle 83" width="47.5" height="16" transform="matrix(0.389, -0.921, 0.921, 0.389, 1506.888, 4050.765)" fill="#70c2a1"/>
    <circle id="Ellipse_23" data-name="Ellipse 23" cx="50.4" cy="50.4" r="50.4" transform="translate(1094 2963.6)" fill="#f8b50c"/>
    <circle id="Ellipse_24" data-name="Ellipse 24" cx="50.4" cy="50.4" r="50.4" transform="translate(1704.4 2750)" fill="#1b9ac4"/>
    <circle id="Ellipse_25" data-name="Ellipse 25" cx="50.4" cy="50.4" r="50.4" transform="translate(1073.2 3312.3)" fill="#70c2a1"/>
    <circle id="Ellipse_26" data-name="Ellipse 26" cx="50.4" cy="50.4" r="50.4" transform="translate(1574.9 3630)" fill="#f8b50c"/>
    <line id="Line_52" data-name="Line 52" y2="109.5" transform="translate(1233.4 2811.6)" fill="none" stroke="#f8b50c" stroke-width="9.722"/>
    <line id="Line_53" data-name="Line 53" x2="60.8" y2="45" transform="translate(1431.7 2911.3)" fill="none" stroke="#be1322" stroke-width="9.722"/>
    <line id="Line_54" data-name="Line 54" x2="60.8" y2="45" transform="translate(1716.3 4026.1)" fill="none" stroke="#be1322" stroke-width="9.722"/>
    <line id="Line_55" data-name="Line 55" x2="20.8" y2="21.8" transform="translate(1435 3045.7)" fill="none" stroke="#1b9ac4" stroke-width="9.722"/>
    <line id="Line_56" data-name="Line 56" y2="129.3" transform="translate(1541.5 2782)" fill="none" stroke="#f8b50c" stroke-width="9.722"/>
    <line id="Line_57" data-name="Line 57" y2="131" transform="translate(1625.1 2888.8)" fill="none" stroke="#70c2a1" stroke-width="9.722"/>
    <line id="Line_58" data-name="Line 58" x1="62.8" y2="30.6" transform="translate(1523.2 3304.6)" fill="none" stroke="#f8b50c" stroke-width="9.722"/>
    <line id="Line_59" data-name="Line 59" x2="13.7" y2="66.5" transform="translate(1278.4 3252.1)" fill="none" stroke="#951b8a" stroke-width="9.722"/>
    <line id="Line_60" data-name="Line 60" x2="33.3" y2="24.5" transform="translate(1334.3 3612.7)" fill="none" stroke="#95c020" stroke-width="9.722"/>
    <line id="Line_61" data-name="Line 61" y2="130.9" transform="translate(1171.2 3645.9)" fill="none" stroke="#70c2a1" stroke-width="9.722"/>
    <path id="Path_22" data-name="Path 22" d="M1314.3,3800.6c1.6,0,71.8,11.1,71.8,11.1" stroke="#be1322" stroke-width="9.722"/>
    <line id="Line_62" data-name="Line 62" x2="82.9" y2="71.8" transform="translate(1496.9 3780.5)" fill="none" stroke="#95c020" stroke-width="9.722"/>
    <line id="Line_63" data-name="Line 63" x2="69.7" y2="29.6" transform="translate(1807.8 3918.8)" fill="none" stroke="#95c020" stroke-width="9.722"/>
    <path id="Path_23" data-name="Path 23" d="M1254.6,4005.9c1.6,0,47.5,47,47.5,47" stroke="#951b8a" stroke-width="9.722"/>
    <line id="Line_64" data-name="Line 64" x2="44.3" y2="61.4" transform="translate(1791.5 3579.9)" fill="none" stroke="#be1322" stroke-width="9.722"/>
    <line id="Line_65" data-name="Line 65" x1="7.4" y2="27.9" transform="translate(1066.2 3475)" fill="none" stroke="#cabcae" stroke-width="9.722"/>
    <line id="Line_66" data-name="Line 66" x1="36.6" y2="19.1" transform="translate(1152.9 3143.8)" fill="none" stroke="#70c2a1" stroke-width="9.722"/>
    <line id="Line_67" data-name="Line 67" x1="36.6" y2="19.2" transform="translate(1710.1 3439.1)" fill="none" stroke="#70c2a1" stroke-width="9.722"/>
    <line id="Line_68" data-name="Line 68" x1="39.3" y2="52.8" transform="translate(1175.2 3484.1)" fill="none" stroke="#ef80b6" stroke-width="9.722"/>
    <rect id="Rectangle_84" data-name="Rectangle 84" width="27.8" height="49.1" transform="matrix(0.408, -0.913, 0.913, 0.408, 161.761, 29.234)" fill="#95c020"/>
    <rect id="Rectangle_85" data-name="Rectangle 85" width="51.9" height="16.8" transform="matrix(0.831, -0.556, 0.556, 0.831, 20.206, 134.112)" fill="#1b9ac4"/>
    <rect id="Rectangle_86" data-name="Rectangle 86" width="47.4" height="16.8" transform="matrix(0.619, -0.785, 0.785, 0.619, 845.828, 143.175)" fill="#f09112"/>
    <rect id="Rectangle_87" data-name="Rectangle 87" width="16.8" height="47.4" transform="translate(872.75 345.475) rotate(-76.832)" fill="#70c2a1"/>
    <rect id="Rectangle_88" data-name="Rectangle 88" width="12.8" height="75.1" transform="matrix(0.866, -0.5, 0.5, 0.866, 744.383, 249.549)" fill="#95c020"/>
    <rect id="Rectangle_89" data-name="Rectangle 89" width="42.7" height="8" transform="translate(741.1 440.1)" fill="#cabcae"/>
    <rect id="Rectangle_90" data-name="Rectangle 90" width="25.6" height="25.6" transform="translate(622.048 358.453) rotate(-10.568)" fill="#951b8a"/>
    <rect id="Rectangle_91" data-name="Rectangle 91" width="49.3" height="25.6" transform="translate(828.72 563.577) rotate(-4.105)" fill="#2ea262"/>
    <rect id="Rectangle_92" data-name="Rectangle 92" width="25.6" height="25.6" transform="translate(847.317 711.926) rotate(-45)" fill="#f8b50c"/>
    <rect id="Rectangle_93" data-name="Rectangle 93" width="49.4" height="25.1" transform="matrix(0.614, -0.789, 0.789, 0.614, 379.316, 448.995)" fill="#ef80b6"/>
    <rect id="Rectangle_94" data-name="Rectangle 94" width="25.1" height="49.4" transform="matrix(0.614, -0.789, 0.789, 0.614, 342.486, 712.516)" fill="#1b9ac4"/>
    <rect id="Rectangle_95" data-name="Rectangle 95" width="12.5" height="49.4" transform="translate(0.059 889.609) rotate(-72.116)" fill="#1b9ac4"/>
    <rect id="Rectangle_96" data-name="Rectangle 96" width="49.4" height="12.5" transform="translate(5.782 1054.356) rotate(-53.949)" fill="#f8b50c"/>
    <rect id="Rectangle_97" data-name="Rectangle 97" width="49.4" height="25.8" transform="matrix(0.095, -0.996, 0.996, 0.095, 45.002, 1255.192)" fill="#ef80b6"/>
    <rect id="Rectangle_98" data-name="Rectangle 98" width="24.7" height="25.1" transform="matrix(0.986, -0.169, 0.169, 0.986, 16.458, 480.952)" fill="#e50f7a"/>
    <rect id="Rectangle_99" data-name="Rectangle 99" width="26.1" height="26.1" transform="matrix(0.408, -0.913, 0.913, 0.408, 383.983, 57.025)" fill="#cabcae"/>
    <rect id="Rectangle_100" data-name="Rectangle 100" width="25.6" height="25.6" transform="translate(576.67 721.096) rotate(-5.401)" fill="#cabcae"/>
    <rect id="Rectangle_101" data-name="Rectangle 101" width="25.6" height="25.6" transform="translate(836.365 1012.302) rotate(-47.018)" fill="#1b9ac4"/>
    <rect id="Rectangle_102" data-name="Rectangle 102" width="25.6" height="25.6" transform="translate(683.545 1165.542) rotate(-47.018)" fill="#662480"/>
    <rect id="Rectangle_103" data-name="Rectangle 103" width="47.5" height="16" transform="matrix(0.389, -0.921, 0.921, 0.389, 518.66, 1300.824)" fill="#70c2a1"/>
    <circle id="Ellipse_27" data-name="Ellipse 27" cx="50.4" cy="50.4" r="50.4" transform="translate(105.7 213.5)" fill="#f8b50c"/>
    <circle id="Ellipse_28" data-name="Ellipse 28" cx="50.4" cy="50.4" r="50.4" transform="translate(716.1 0)" fill="#1b9ac4"/>
    <circle id="Ellipse_29" data-name="Ellipse 29" cx="50.4" cy="50.4" r="50.4" transform="matrix(0.998, -0.055, 0.055, 0.998, 82.192, 565.181)" fill="#70c2a1"/>
    <circle id="Ellipse_30" data-name="Ellipse 30" cx="50.4" cy="50.4" r="50.4" transform="translate(586.6 880)" fill="#f8b50c"/>
    <line id="Line_69" data-name="Line 69" y2="109.5" transform="translate(245 61.5)" fill="none" stroke="#f8b50c" stroke-width="9.722"/>
    <line id="Line_70" data-name="Line 70" x2="60.8" y2="45" transform="translate(443.3 161.3)" fill="none" stroke="#be1322" stroke-width="9.722"/>
    <line id="Line_71" data-name="Line 71" x2="60.8" y2="45.1" transform="translate(728 1276)" fill="none" stroke="#be1322" stroke-width="9.722"/>
    <line id="Line_72" data-name="Line 72" x2="20.8" y2="21.8" transform="translate(446.7 295.7)" fill="none" stroke="#1b9ac4" stroke-width="9.722"/>
    <line id="Line_73" data-name="Line 73" y2="129.3" transform="translate(553.2 32)" fill="none" stroke="#f8b50c" stroke-width="9.722"/>
    <line id="Line_74" data-name="Line 74" y2="131" transform="translate(636.8 138.8)" fill="none" stroke="#70c2a1" stroke-width="9.722"/>
    <line id="Line_75" data-name="Line 75" x1="62.9" y2="30.6" transform="translate(534.8 554.6)" fill="none" stroke="#f8b50c" stroke-width="9.722"/>
    <line id="Line_76" data-name="Line 76" x2="13.7" y2="66.5" transform="translate(290.1 502.1)" fill="none" stroke="#951b8a" stroke-width="9.722"/>
    <line id="Line_77" data-name="Line 77" x2="33.3" y2="24.6" transform="translate(346 862.6)" fill="none" stroke="#95c020" stroke-width="9.722"/>
    <line id="Line_78" data-name="Line 78" y2="130.9" transform="translate(182.9 895.9)" fill="none" stroke="#70c2a1" stroke-width="9.722"/>
    <path id="Path_24" data-name="Path 24" d="M326,1050.6c1.6,0,71.8,11.1,71.8,11.1" stroke="#be1322" stroke-width="9.722"/>
    <line id="Line_79" data-name="Line 79" x2="82.9" y2="71.8" transform="translate(508.6 1030.5)" fill="none" stroke="#95c020" stroke-width="9.722"/>
    <line id="Line_80" data-name="Line 80" x2="69.7" y2="29.6" transform="translate(819.5 1168.8)" fill="none" stroke="#95c020" stroke-width="9.722"/>
    <path id="Path_25" data-name="Path 25" d="M266.3,1255.9c1.6,0,47.5,47,47.5,47" stroke="#951b8a" stroke-width="9.722"/>
    <line id="Line_81" data-name="Line 81" x2="44.3" y2="61.4" transform="translate(803.2 829.9)" fill="none" stroke="#be1322" stroke-width="9.722"/>
    <line id="Line_82" data-name="Line 82" x1="7.4" y2="27.8" transform="translate(77.9 725)" fill="none" stroke="#cabcae" stroke-width="9.722"/>
    <line id="Line_83" data-name="Line 83" x1="36.6" y2="19.1" transform="translate(164.6 393.8)" fill="none" stroke="#70c2a1" stroke-width="9.722"/>
    <line id="Line_84" data-name="Line 84" x1="36.6" y2="19.1" transform="translate(721.8 689.1)" fill="none" stroke="#70c2a1" stroke-width="9.722"/>
    <line id="Line_85" data-name="Line 85" x1="39.3" y2="52.8" transform="translate(186.8 734)" fill="none" stroke="#ef80b6" stroke-width="9.722"/>
    <rect id="Rectangle_104" data-name="Rectangle 104" width="27.8" height="49.1" transform="matrix(0.408, -0.913, 0.913, 0.408, 1150.025, 31.829)" fill="#95c020"/>
    <rect id="Rectangle_105" data-name="Rectangle 105" width="51.9" height="16.8" transform="matrix(0.831, -0.556, 0.556, 0.831, 1008.368, 136.777)" fill="#1b9ac4"/>
    <rect id="Rectangle_106" data-name="Rectangle 106" width="47.4" height="16.8" transform="matrix(0.619, -0.785, 0.785, 0.619, 1834.065, 145.811)" fill="#f09112"/>
    <rect id="Rectangle_107" data-name="Rectangle 107" width="16.8" height="47.4" transform="translate(1860.995 348.026) rotate(-76.832)" fill="#70c2a1"/>
    <rect id="Rectangle_108" data-name="Rectangle 108" width="12.8" height="75.1" transform="matrix(0.866, -0.5, 0.5, 0.866, 1732.639, 252.07)" fill="#95c020"/>
    <rect id="Rectangle_109" data-name="Rectangle 109" width="42.7" height="8" transform="translate(1729.4 442.7)" fill="#cabcae"/>
    <rect id="Rectangle_110" data-name="Rectangle 110" width="25.6" height="25.6" transform="translate(1610.216 361.07) rotate(-10.568)" fill="#951b8a"/>
    <rect id="Rectangle_111" data-name="Rectangle 111" width="49.3" height="25.6" transform="translate(1816.886 566.082) rotate(-4.105)" fill="#2ea262"/>
    <rect id="Rectangle_112" data-name="Rectangle 112" width="25.6" height="25.6" transform="translate(1835.667 714.524) rotate(-45)" fill="#f8b50c"/>
    <rect id="Rectangle_113" data-name="Rectangle 113" width="49.4" height="25.1" transform="matrix(0.614, -0.789, 0.789, 0.614, 1367.565, 451.63)" fill="#ef80b6"/>
    <rect id="Rectangle_114" data-name="Rectangle 114" width="25.1" height="49.4" transform="matrix(0.614, -0.789, 0.789, 0.614, 1330.772, 715.106)" fill="#1b9ac4"/>
    <rect id="Rectangle_115" data-name="Rectangle 115" width="12.5" height="49.4" transform="translate(988.455 892.222) rotate(-72.116)" fill="#1b9ac4"/>
    <rect id="Rectangle_116" data-name="Rectangle 116" width="49.4" height="12.5" transform="translate(994.229 1056.888) rotate(-53.949)" fill="#f8b50c"/>
    <rect id="Rectangle_117" data-name="Rectangle 117" width="49.4" height="25.8" transform="matrix(0.095, -0.996, 0.996, 0.095, 1033.337, 1257.772)" fill="#ef80b6"/>
    <rect id="Rectangle_118" data-name="Rectangle 118" width="24.7" height="25.1" transform="matrix(0.986, -0.169, 0.169, 0.986, 1004.727, 483.551)" fill="#e50f7a"/>
    <rect id="Rectangle_119" data-name="Rectangle 119" width="26.1" height="26.1" transform="matrix(0.408, -0.913, 0.913, 0.408, 1372.207, 59.711)" fill="#cabcae"/>
    <rect id="Rectangle_120" data-name="Rectangle 120" width="25.6" height="25.6" transform="translate(1565.109 723.695) rotate(-5.401)" fill="#cabcae"/>
    <rect id="Rectangle_121" data-name="Rectangle 121" width="25.6" height="25.6" transform="translate(1824.687 1014.897) rotate(-47.018)" fill="#1b9ac4"/>
    <rect id="Rectangle_122" data-name="Rectangle 122" width="25.6" height="25.6" transform="translate(1671.982 1168.207) rotate(-47.018)" fill="#662480"/>
    <rect id="Rectangle_123" data-name="Rectangle 123" width="47.5" height="16" transform="matrix(0.389, -0.921, 0.921, 0.389, 1506.921, 1303.505)" fill="#70c2a1"/>
    <circle id="Ellipse_31" data-name="Ellipse 31" cx="50.4" cy="50.4" r="50.4" transform="translate(1094 216.1)" fill="#f8b50c"/>
    <circle id="Ellipse_32" data-name="Ellipse 32" cx="50.4" cy="50.4" r="50.4" transform="translate(1704.4 2.6)" fill="#1b9ac4"/>
    <circle id="Ellipse_33" data-name="Ellipse 33" cx="50.4" cy="50.4" r="50.4" transform="translate(1073.2 564.9)" fill="#70c2a1"/>
    <circle id="Ellipse_34" data-name="Ellipse 34" cx="50.4" cy="50.4" r="50.4" transform="translate(1574.9 882.6)" fill="#f8b50c"/>
    <line id="Line_86" data-name="Line 86" y2="109.5" transform="translate(1233.4 64.1)" fill="none" stroke="#f8b50c" stroke-width="9.722"/>
    <line id="Line_87" data-name="Line 87" x2="60.8" y2="45" transform="translate(1431.7 163.9)" fill="none" stroke="#be1322" stroke-width="9.722"/>
    <line id="Line_88" data-name="Line 88" x2="60.8" y2="45.1" transform="translate(1716.3 1278.6)" fill="none" stroke="#be1322" stroke-width="9.722"/>
    <line id="Line_89" data-name="Line 89" x2="20.8" y2="21.8" transform="translate(1435 298.3)" fill="none" stroke="#1b9ac4" stroke-width="9.722"/>
    <line id="Line_90" data-name="Line 90" y2="129.3" transform="translate(1541.5 34.6)" fill="none" stroke="#f8b50c" stroke-width="9.722"/>
    <line id="Line_91" data-name="Line 91" y2="131" transform="translate(1625.1 141.4)" fill="none" stroke="#70c2a1" stroke-width="9.722"/>
    <line id="Line_92" data-name="Line 92" x1="62.8" y2="30.6" transform="translate(1523.2 557.2)" fill="none" stroke="#f8b50c" stroke-width="9.722"/>
    <line id="Line_93" data-name="Line 93" x2="13.7" y2="66.5" transform="translate(1278.4 504.7)" fill="none" stroke="#951b8a" stroke-width="9.722"/>
    <line id="Line_94" data-name="Line 94" x2="33.3" y2="24.6" transform="translate(1334.3 865.2)" fill="none" stroke="#95c020" stroke-width="9.722"/>
    <line id="Line_95" data-name="Line 95" y2="130.9" transform="translate(1171.2 898.5)" fill="none" stroke="#70c2a1" stroke-width="9.722"/>
    <path id="Path_26" data-name="Path 26" d="M1314.3,1053.2c1.6,0,71.8,11.1,71.8,11.1" stroke="#be1322" stroke-width="9.722"/>
    <line id="Line_96" data-name="Line 96" x2="82.9" y2="71.8" transform="translate(1496.9 1033.1)" fill="none" stroke="#95c020" stroke-width="9.722"/>
    <line id="Line_97" data-name="Line 97" x2="69.7" y2="29.6" transform="translate(1807.8 1171.4)" fill="none" stroke="#95c020" stroke-width="9.722"/>
    <path id="Path_27" data-name="Path 27" d="M1254.6,1258.5c1.6,0,47.5,47,47.5,47" stroke="#951b8a" stroke-width="9.722"/>
    <line id="Line_98" data-name="Line 98" x2="44.3" y2="61.4" transform="translate(1791.5 832.5)" fill="none" stroke="#be1322" stroke-width="9.722"/>
    <line id="Line_99" data-name="Line 99" x1="7.4" y2="27.8" transform="translate(1066.2 727.6)" fill="none" stroke="#cabcae" stroke-width="9.722"/>
    <line id="Line_100" data-name="Line 100" x1="36.6" y2="19.1" transform="translate(1152.9 396.4)" fill="none" stroke="#70c2a1" stroke-width="9.722"/>
    <line id="Line_101" data-name="Line 101" x1="36.6" y2="19.1" transform="translate(1710.1 691.7)" fill="none" stroke="#70c2a1" stroke-width="9.722"/>
    <line id="Line_102" data-name="Line 102" x1="39.3" y2="52.8" transform="translate(1175.2 736.6)" fill="none" stroke="#ef80b6" stroke-width="9.722"/>
  </g>
</svg>
