<?xml version="1.0" encoding="utf-8"?>
<!-- Generator: Adobe Illustrator 25.2.0, SVG Export Plug-In . SVG Version: 6.00 Build 0)  -->
<svg version="1.1" id="Layer_1" xmlns="http://www.w3.org/2000/svg" xmlns:xlink="http://www.w3.org/1999/xlink" x="0px" y="0px"
	 viewBox="0 0 1920 1280" style="enable-background:new 0 0 1920 1280;" xml:space="preserve">
<style type="text/css">
	.st0{fill:#70C2A1;}
	.st1{fill:#95C020;}
	.st2{fill:#CABCAE;}
	.st3{fill:#951B8A;}
	.st4{fill:#2EA262;}
	.st5{fill:#F8B50C;}
	.st6{fill:#EF80B6;}
	.st7{fill:#1B9AC4;}
	.st8{fill:#E50F7A;}
	.st9{fill:none;stroke:#BE1322;stroke-width:9.7216;stroke-miterlimit:10;}
	.st10{fill:none;stroke:#1B9AC4;stroke-width:9.7216;stroke-miterlimit:10;}
	.st11{fill:none;stroke:#70C2A1;stroke-width:9.7216;stroke-miterlimit:10;}
	.st12{fill:none;stroke:#F8B50C;stroke-width:9.7216;stroke-miterlimit:10;}
	.st13{stroke:#BE1322;stroke-width:9.7216;stroke-miterlimit:10;}
	.st14{fill:none;stroke:#95C020;stroke-width:9.7216;stroke-miterlimit:10;}
	.st15{fill:none;stroke:#CABCAE;stroke-width:9.7216;stroke-miterlimit:10;}
	.st16{fill:none;stroke:#EF80B6;stroke-width:9.7216;stroke-miterlimit:10;}
	.st17{fill:#662480;}
	.st18{stroke:#951B8A;stroke-width:9.7216;stroke-miterlimit:10;}
	.st19{fill:#F09112;}
	.st20{fill:none;stroke:#951B8A;stroke-width:9.7216;stroke-miterlimit:10;}
</style>
<rect x="833.4" y="121.5" transform="matrix(0.2278 -0.9737 0.9737 0.2278 509.8733 929.8183)" class="st0" width="15.6" height="44"/>
<rect x="715.6" y="49.4" transform="matrix(0.866 -0.5 0.5 0.866 54.5518 372.036)" class="st1" width="11.9" height="69.7"/>
<rect x="695.8" y="233.8" class="st2" width="39.6" height="7.4"/>
<rect x="587.3" y="155.6" transform="matrix(0.983 -0.1834 0.1834 0.983 -20.5504 112.7395)" class="st3" width="23.7" height="23.7"/>
<rect x="777.9" y="346.6" transform="matrix(0.9974 -7.159325e-02 7.159325e-02 0.9974 -23.6084 58.2477)" class="st4" width="45.7" height="23.7"/>
<rect x="799.3" y="474.1" transform="matrix(0.7071 -0.7071 0.7071 0.7071 -106.011 715.9321)" class="st5" width="23.7" height="23.7"/>
<rect x="26.2" y="629.5" transform="matrix(0.3071 -0.9517 0.9517 0.3071 -598.6948 482.4662)" class="st7" width="11.6" height="45.8"/>
<rect x="25.4" y="269.5" transform="matrix(0.9856 -0.1689 0.1689 0.9856 -46.9588 10.2629)" class="st8" width="22.9" height="23.3"/>
<rect x="544.4" y="493.5" transform="matrix(0.9956 -9.413087e-02 9.413087e-02 0.9956 -45.0996 54.6018)" class="st2" width="23.7" height="23.7"/>
<ellipse transform="matrix(0.9939 -0.1104 0.1104 0.9939 -42.692 17.1908)" class="st0" cx="133.8" cy="394" rx="46.8" ry="46.8"/>
<circle class="st5" cx="599.2" cy="688.7" r="46.8"/>
<line class="st9" x1="452.9" y1="30.2" x2="509.3" y2="72"/>
<line class="st10" x1="422.7" y1="99.9" x2="442" y2="120.1"/>
<line class="st14" x1="768.5" y1="909.8" x2="833.2" y2="937.3"/>
<line class="st15" x1="87.5" y1="498.1" x2="80.6" y2="523.9"/>
<line class="st11" x1="195" y1="190.9" x2="161" y2="208.6"/>
<line class="st11" x1="711.9" y1="464.8" x2="677.9" y2="482.5"/>
<line class="st16" x1="218.1" y1="506.5" x2="181.6" y2="555.5"/>
<rect x="1750.1" y="123.8" transform="matrix(0.2278 -0.9737 0.9737 0.2278 1215.4722 1824.2802)" class="st0" width="15.6" height="44"/>
<rect x="1612.6" y="236.3" class="st2" width="39.6" height="7.4"/>
<rect x="1694.5" y="348.9" transform="matrix(0.9974 -7.159325e-02 7.159325e-02 0.9974 -21.4225 123.8806)" class="st4" width="45.7" height="23.7"/>
<rect x="1716.1" y="476.5" transform="matrix(0.7071 -0.7071 0.7071 0.7071 160.7544 1364.911)" class="st5" width="23.7" height="23.7"/>
<rect x="925.8" y="785" transform="matrix(0.5885 -0.8085 0.8085 0.5885 -248.9876 1092.4907)" class="st5" width="45.8" height="11.6"/>
<rect x="942.1" y="271.9" transform="matrix(0.9856 -0.1689 0.1689 0.9856 -34.1943 165.1434)" class="st8" width="22.9" height="23.3"/>
<rect x="1461.3" y="495.9" transform="matrix(0.9956 -9.413087e-02 9.413087e-02 0.9956 -41.2549 140.9228)" class="st2" width="23.7" height="23.7"/>
<rect x="1705.8" y="754.7" transform="matrix(0.6818 -0.7316 0.7316 0.6818 -14.1453 1500.5607)" class="st7" width="23.7" height="23.7"/>
<rect x="1564.2" y="896.9" transform="matrix(0.6818 -0.7316 0.7316 0.6818 -163.2656 1442.1877)" class="st17" width="23.7" height="23.7"/>
<rect x="1399.6" y="1009.9" transform="matrix(0.3895 -0.921 0.921 0.3895 -69.0165 1930.4371)" class="st0" width="44.1" height="14.8"/>
<line class="st9" x1="1336.4" y1="15.9" x2="1392.8" y2="57.6"/>
<line class="st10" x1="1339.5" y1="102.3" x2="1358.9" y2="122.5"/>
<line class="st12" x1="1479.6" y1="342.5" x2="1421.3" y2="370.9"/>
<line class="st14" x1="1246.1" y1="628.2" x2="1277" y2="651"/>
<line class="st14" x1="1396.9" y1="783.9" x2="1473.8" y2="850.5"/>
<path class="st18" d="M1172.2,993c1.5,0,44.1,43.6,44.1,43.6"/>
<line class="st15" x1="1004.3" y1="500.5" x2="997.4" y2="526.3"/>
<line class="st11" x1="1111.8" y1="193.3" x2="1077.8" y2="211"/>
<line class="st11" x1="1628.6" y1="467.2" x2="1594.7" y2="485"/>
<rect x="782.3" y="1248.3" transform="matrix(0.6188 -0.7855 0.7855 0.6188 -680.1288 1110.5504)" class="st19" width="44" height="15.6"/>
<rect x="360" y="1170.4" transform="matrix(0.4079 -0.913 0.913 0.4079 -859.3765 1039.8544)" class="st2" width="24.2" height="24.2"/>
<line class="st12" x1="247" y1="1168.7" x2="247" y2="1270.3"/>
<rect x="1079.9" y="1139.9" transform="matrix(0.4079 -0.913 0.913 0.4079 -414.549 1686.1409)" class="st1" width="25.8" height="45.5"/>
<rect x="935.6" y="1247.9" transform="matrix(0.8314 -0.5556 0.5556 0.8314 -535.9152 744.8868)" class="st7" width="48.1" height="15.6"/>
<rect x="1704.4" y="1239.3" transform="matrix(0.6188 -0.7855 0.7855 0.6188 -321.5957 1831.5216)" class="st19" width="44" height="15.6"/>
<rect x="1276.7" y="1172.8" transform="matrix(0.4079 -0.913 0.913 0.4079 -318.7731 1878.2976)" class="st2" width="24.2" height="24.2"/>
<line class="st12" x1="1152.5" y1="1162.7" x2="1152.5" y2="1264.3"/>
<rect x="1790.6" y="613.9" transform="matrix(0.3071 -0.9517 0.9517 0.3071 638.7053 2150.7783)" class="st7" width="11.6" height="45.8"/>
<rect x="1773.3" y="767" transform="matrix(0.5885 -0.8085 0.8085 0.5885 114.336 1770.277)" class="st5" width="45.8" height="11.6"/>
<rect x="1805.7" y="940.6" transform="matrix(9.509806e-02 -0.9955 0.9955 9.509806e-02 706.3981 2682.311)" class="st6" width="45.8" height="23.9"/>
<circle class="st5" cx="1917.4" cy="54.8" r="46.8"/>
<circle class="st0" cx="1898.2" cy="378.3" r="46.8"/>
<line class="st15" x1="1851.8" y1="482.5" x2="1844.9" y2="508.3"/>
<rect x="1783.1" y="1229.9" transform="matrix(0.8314 -0.5556 0.5556 0.8314 -383.0389 1212.74)" class="st7" width="48.1" height="15.6"/>
</svg>
