<?xml version="1.0" encoding="utf-8"?>
<!-- Generator: Adobe Illustrator 25.2.0, SVG Export Plug-In . SVG Version: 6.00 Build 0)  -->
<svg version="1.1" id="Layer_1" xmlns="http://www.w3.org/2000/svg" xmlns:xlink="http://www.w3.org/1999/xlink" x="0px" y="0px"
	 viewBox="0 0 1920 1280" style="enable-background:new 0 0 1920 1280;" xml:space="preserve">
<style type="text/css">
	.st0{fill:#EF80B6;}
	.st1{fill:none;stroke:#70C2A1;stroke-width:9.7216;stroke-miterlimit:10;}
	.st2{fill:none;stroke:#F8B50C;stroke-width:9.7216;stroke-miterlimit:10;}
	.st3{stroke:#BE1322;stroke-width:9.7216;stroke-miterlimit:10;}
	.st4{fill:none;stroke:#BE1322;stroke-width:9.7216;stroke-miterlimit:10;}
	.st5{fill:#F8B50C;}
	.st6{fill:#1B9AC4;}
	.st7{fill:#70C2A1;}
	.st8{fill:none;stroke:#951B8A;stroke-width:9.7216;stroke-miterlimit:10;}
	.st9{fill:#95C020;}
	.st10{fill:none;stroke:#95C020;stroke-width:9.7216;stroke-miterlimit:10;}
	.st11{fill:none;stroke:#EF80B6;stroke-width:9.7216;stroke-miterlimit:10;}
	.st12{fill:#E50F7A;}
</style>
<rect x="483.1" y="248.2" transform="matrix(0.6144 -0.789 0.789 0.6144 -10.1804 517.9863)" class="st0" width="83.5" height="42.5"/>
<rect x="192.1" y="919.7" transform="matrix(9.509502e-02 -0.9955 0.9955 9.509502e-02 -725.6133 1084.8362)" class="st0" width="83.5" height="43.6"/>
<line class="st1" x1="753.5" y1="26.6" x2="753.5" y2="248.4"/>
<line class="st2" x1="715" y1="355.7" x2="608.7" y2="407.5"/>
<path class="st3" d="M428,783.5c2.7,0,121.4,18.8,121.4,18.8"/>
<line class="st4" x1="1608.9" y1="961.9" x2="1711.7" y2="1038.2"/>
<path class="st3" d="M1263.8,785.7c2.7,0,121.4,18.8,121.4,18.8"/>
<line class="st2" x1="1476.4" y1="1044.2" x2="1476.4" y2="1262.9"/>
<rect x="102.9" y="766.1" transform="matrix(0.5885 -0.8085 0.8085 0.5885 -568.4318 436.5892)" class="st5" width="83.5" height="21.2"/>
<rect x="824.3" y="732.8" transform="matrix(0.6818 -0.7316 0.7316 0.6818 -282.702 858.8912)" class="st6" width="43.2" height="43.2"/>
<rect x="535.7" y="969.5" transform="matrix(0.3895 -0.921 0.921 0.3895 -553.7885 1130.5586)" class="st7" width="80.4" height="27"/>
<line class="st4" x1="713.2" y1="958.8" x2="816.1" y2="1035.2"/>
<line class="st8" x1="362.8" y1="295.2" x2="386" y2="407.7"/>
<line class="st1" x1="278" y1="601.1" x2="278" y2="822.4"/>
<rect x="1598.5" y="73.1" transform="matrix(0.866 -0.5 0.5 0.866 147.3016 822.9985)" class="st9" width="21.7" height="127.1"/>
<rect x="1250.6" y="466.2" transform="matrix(0.6144 -0.789 0.789 0.6144 89.6755 1199.344)" class="st6" width="42.5" height="83.5"/>
<rect x="970.2" y="612.9" transform="matrix(0.3071 -0.9517 0.9517 0.3071 56.4901 1386.9893)" class="st6" width="21.2" height="83.5"/>
<circle class="st5" cx="1091.2" cy="124.1" r="85.3"/>
<circle class="st5" cx="1498" cy="687.8" r="85.3"/>
<line class="st1" x1="1510.6" y1="11.1" x2="1510.6" y2="232.7"/>
<line class="st10" x1="1622.8" y1="877" x2="1740.6" y2="926.9"/>
<line class="st11" x1="1167" y1="499.3" x2="1100.7" y2="588.7"/>
<rect x="111" y="1186.1" transform="matrix(0.8314 -0.5556 0.5556 0.8314 -640.8375 288.3593)" class="st6" width="87.7" height="28.4"/>
<circle class="st6" cx="763.9" cy="1135.9" r="85.3"/>
<rect x="1736.9" y="278.5" transform="matrix(0.9856 -0.1689 0.1689 0.9856 -25.3784 301.2)" class="st12" width="41.8" height="42.5"/>
</svg>
