<svg xmlns:svg="http://www.w3.org/2000/svg" xmlns="http://www.w3.org/2000/svg" xmlns:xlink="http://www.w3.org/1999/xlink" viewBox="0 0 92 90" xml:space="preserve">
  <path d="m57 24-11-1-11 1c-7 0-10 3-10 10l-1 11 1 11c0 7 3 10 10 10l11 1 11-1c7 0 10-3 10-10l1-11-1-11c0-7-3-10-10-10zM46 59a14 14 0 1 1 0-28 14 14 0 0 1 0 28zm14-25c-2 0-3-1-3-3s1-3 3-3 3 1 3 3-1 3-3 3zm-5 11a9 9 0 1 1-18 0 9 9 0 0 1 18 0zM46 0a45 45 0 1 0 0 90 45 45 0 0 0 0-90zm26 56c0 9-6 15-15 15H35c-9 0-15-6-15-15V34c0-9 6-15 15-15h22c9 0 15 6 15 15v22z" fill="#E5007D"/>
</svg>