<svg xmlns="http://www.w3.org/2000/svg" viewBox="0 0 269.1 80" xml:space="preserve">
  <circle cx="131.4" cy="39.2" r="8.4"/>
  <path d="M47 32.5h10.4v3.1h-3.5V47h-3.3V35.6H47v-3.1zm19 0h3.3v8.9c0 .8.2 1.5.7 2s1.1.8 1.9.8c.9 0 1.6-.3 2.1-.8s.8-1.2.8-2.1v-8.7h3.3V42c0 .8-.2 1.7-.7 2.6-.5.9-1.2 1.6-2.1 2-.9.5-2 .7-3.2.7-2.1 0-3.7-.6-4.6-1.7-1-1.1-1.5-2.3-1.5-3.5v-9.6zm21.7 0H93c2.3 0 4.1.7 5.4 2 1.4 1.3 2.1 3.1 2.1 5.3s-.7 3.9-2.1 5.3c-1.4 1.3-3.3 2-5.7 2h-5V32.5zm3.3 2.7v9h1.3c1.4 0 2.5-.3 3.4-1.1.9-.7 1.3-1.9 1.3-3.5 0-1-.2-1.8-.6-2.5s-1-1.2-1.8-1.5-1.6-.4-2.3-.4H91zm18.3-2.7h3.3V47h-3.3V32.5zM151.4 37h-3c.1-1.3.6-2.3 1.5-3.1s2-1.2 3.3-1.2c1.4 0 2.6.4 3.6 1.1 1 .7 1.5 1.6 1.5 2.7s-.6 2.2-1.8 3.1c.8.5 1.3.9 1.7 1.4s.5 1.1.5 1.8c0 1.3-.5 2.4-1.4 3.2s-2.2 1.2-3.7 1.2c-1.4 0-2.6-.4-3.5-1.1-.9-.8-1.5-1.8-1.7-3.2h3.1c.4 1.3 1.1 2 2.1 2 .5 0 1-.2 1.3-.5.4-.4.5-.8.5-1.3 0-.6-.2-1.2-.7-1.6-.4-.4-1-.6-1.7-.6h-.6v-2.4h.3c.7 0 1.3-.2 1.7-.5s.6-.8.6-1.3-.2-.9-.5-1.3c-.3-.3-.8-.5-1.3-.5-1 .1-1.6.8-1.8 2.1zm21.9-4.4h2.6l6.3 14.5h-3.3l-1.2-2.9h-5.9l-1.2 2.9h-3.3l6-14.5zm1.2 4.8-1.8 4.3h3.7l-1.9-4.3zm16.3-4.8h5.1c1.5 0 2.8.4 3.7 1.1.9.8 1.3 1.8 1.3 3.1 0 .7-.2 1.5-.6 2.3-.4.8-1.2 1.4-2.3 1.9l4.3 6.1h-3.8l-4-5.6h-.4v5.6h-3.3V32.6zm3.4 2.6V39h.7c1.7 0 2.6-.7 2.6-2 0-.5-.2-1-.7-1.3s-1.1-.5-1.9-.5h-.7zm16.1-2.6h10.4v3.1h-3.5v11.4h-3.3V35.7h-3.5l-.1-3.1zM37.5 39.2c-.4-.2-.9-.5-1.5-.8l3.6-4.2-.6-.6h-.1c-1.2-1-2.6-1.5-4.3-1.5-1.4 0-2.6.4-3.5 1.2-.9.8-1.3 1.9-1.3 3.1 0 .6.1 1.2.4 1.7.3.6.6 1 1 1.3.2.2.5.3.9.5l-34 39.2 1.4 1.2 30.3-34.9c1.3 1 2.7 1.6 4.1 1.6 1.5 0 2.7-.5 3.8-1.4s1.6-2 1.6-3.3c0-.7-.2-1.3-.5-1.9-.4-.4-.8-.8-1.3-1.2zm-4.4-2.9c0-.4.1-.7.4-.9s.6-.4 1-.4.9.2 1.6.5l-1.9 2.2c-.7-.4-1.1-.9-1.1-1.4zm2.1 7.2c-.4.3-.8.5-1.2.5-.7 0-1.4-.3-2.2-.9l2.1-2.4c1.2.5 1.8 1.1 1.8 1.7.1.4-.1.8-.5 1.1zM236.5 39.1c-.3-.2-.7-.4-1.2-.6L269.1-.4l-1.4-1.3-30.3 34.9c-1.1-.8-2.3-1.2-3.8-1.2-1.4 0-2.6.4-3.5 1.2s-1.3 1.9-1.3 3.1c0 .6.1 1.2.4 1.7.3.6.6 1 1 1.3.3.2.7.4 1.3.6l-3.8 4.4.6.6c1.5 1.3 3 2 4.6 2 1.5 0 2.7-.5 3.8-1.4s1.6-2 1.6-3.3c0-.7-.2-1.3-.5-1.9-.4-.4-.8-.9-1.3-1.2zm-4.4-3c0-.4.1-.7.4-.9s.6-.4 1-.4 1.1.2 1.9.7l-1.9 2.2c-.9-.5-1.4-1-1.4-1.6zm2.1 7.3c-.4.3-.8.5-1.2.5-.6 0-1.2-.2-1.9-.7l2.1-2.4c1 .5 1.5 1 1.5 1.6.1.3-.1.6-.5 1z"/>
</svg>