<svg xmlns="http://www.w3.org/2000/svg" viewBox="0 0 469 142">
  <g data-name="S3A LOGO BLK" transform="translate(2)">
    <circle data-name="Ellipse 1" cx="14.5" cy="14.5" r="14.5" transform="translate(214 56)"/>
    <g data-name="Group 1" transform="translate(83 59)">
      <path data-name="Path 1" d="M0 0h18v5h-6v20H6V5H0Z"/>
      <path data-name="Path 2" d="M33 0h6v15a5 5 0 0 0 1 4 4 4 0 0 0 3 1 5 5 0 0 0 5-5V0h6v16a9 9 0 0 1-1 5 8 8 0 0 1-4 3 11 11 0 0 1-6 2c-3 0-6-1-8-3a9 9 0 0 1-2-6V0Z"/>
      <path data-name="Path 3" d="M70 0h10a13 13 0 0 1 9 3 12 12 0 0 1 4 10 12 12 0 0 1-4 9 14 14 0 0 1-10 3h-9V0Zm6 5v15h2a8 8 0 0 0 6-2c2-1 3-3 3-6a8 8 0 0 0-1-4 6 6 0 0 0-4-3 11 11 0 0 0-4 0Z"/>
      <path data-name="Path 4" d="M108 0h6v25h-6Z"/>
    </g>
    <g data-name="Group 3" transform="translate(258 59)">
      <g data-name="Group 2">
        <path data-name="Path 5" d="M5 8H0a8 8 0 0 1 3-6 8 8 0 0 1 5-2 11 11 0 0 1 7 2 6 6 0 0 1 2 5 7 7 0 0 1-3 5 11 11 0 0 1 3 3 5 5 0 0 1 1 3 7 7 0 0 1-3 5 10 10 0 0 1-6 2 10 10 0 0 1-6-2 9 9 0 0 1-3-5h5c1 2 2 3 4 3a3 3 0 0 0 2-1 3 3 0 0 0 1-2 3 3 0 0 0-1-3 4 4 0 0 0-3-1H7v-4a5 5 0 0 0 3-1 3 3 0 0 0 1-2 4 4 0 0 0 0-2 3 3 0 0 0-3-1Q6 4 5 8Z"/>
        <path data-name="Path 6" d="M43 0h5l11 25h-6l-2-5H41l-3 5h-5Zm2 8-3 8h6Z"/>
        <path data-name="Path 7" d="M73 0h9a10 10 0 0 1 7 2 7 7 0 0 1 2 5 9 9 0 0 1-1 4 8 8 0 0 1-4 4l7 10h-6l-7-10h-1v10h-6Zm6 5v6h2c2 0 4-1 4-3a3 3 0 0 0-1-3 6 6 0 0 0-3-1Z"/>
        <path data-name="Path 8" d="M107 0h18v5h-6v20h-6V5h-6V0Z"/>
      </g>
    </g>
    <g data-name="Group 5" transform="translate(-2 59)">
      <g data-name="Group 4">
        <path data-name="Path 9" d="m68 12-2-1 6-7-1-1a11 11 0 0 0-8-3 9 9 0 0 0-6 2 7 7 0 0 0-2 5 6 6 0 0 0 1 3 6 6 0 0 0 1 3 6 6 0 0 0 2 1L0 81l2 2 53-60a12 12 0 0 0 7 3 10 10 0 0 0 7-3 7 7 0 0 0 2-5 7 7 0 0 0-1-4 27 27 0 0 0-2-2Zm-7-5a2 2 0 0 1 0-1 3 3 0 0 1 2-1 8 8 0 0 1 3 1l-3 4c-2-1-2-2-2-3Zm3 13a4 4 0 0 1-2 1 6 6 0 0 1-4-2l4-4 3 3a2 2 0 0 1-1 2Z"/>
      </g>
    </g>
    <g data-name="Group 7" transform="translate(396)">
      <g data-name="Group 6">
        <path data-name="Path 10" d="M15 71a12 12 0 0 0-2-1L72 2l-3-2-52 60a11 11 0 0 0-7-2 9 9 0 0 0-6 2 7 7 0 0 0-2 6 6 6 0 0 0 1 3 6 6 0 0 0 1 2 9 9 0 0 0 3 1l-7 8 1 1c3 2 5 3 8 3a10 10 0 0 0 7-2 7 7 0 0 0 2-6 7 7 0 0 0-1-3 13 13 0 0 0-2-2Zm-7-6a2 2 0 0 1 0-1 3 3 0 0 1 2-1 7 7 0 0 1 3 1l-3 4c-2-1-2-1-2-3Zm3 13a4 4 0 0 1-2 1 6 6 0 0 1-3-1l4-4 2 2-1 2Z"/>
      </g>
    </g>
  </g>
</svg>