<svg xmlns="http://www.w3.org/2000/svg" width="123.75" height="24.096" viewBox="0 0 123.75 24.096">
  <g id="Made_by_HdK" data-name="Made by HdK" transform="translate(-1223 -4705)">
    <g id="MADE_BY_HDK-2" data-name="MADE BY HDK" transform="translate(1223 4705)">
      <path id="Path_1397" data-name="Path 1397" d="M392.2,46.707c-1.247,1.063-2.412,2.065-3.7,3.168V37.1c3.434,2.637,6.766,5.192,10.3,7.911-1.676.307-3.127.552-4.681.838,1.022,2.085,1.942,4.15,3,6.112.47.879.082,1.063-.572,1.431-.8.45-1.063.184-1.39-.531C394.244,50.816,393.242,48.833,392.2,46.707Z" transform="translate(-309.087 -29.516)" fill="#8a8a8b"/>
      <path id="Path_1398" data-name="Path 1398" d="M360.4,14.92a5.45,5.45,0,0,1,3.373-4.681,5.556,5.556,0,0,1,6.316.879,5.606,5.606,0,0,1,1.86,5.846c-.061.266,0,.8-.47.654a.733.733,0,0,1-.593-.961,4.3,4.3,0,0,0-.02-2.33,4.745,4.745,0,0,0-4.661-3.516,4.827,4.827,0,0,0-4.579,3.761,4.756,4.756,0,0,0,2.473,5.212,4.98,4.98,0,0,1,.572.286.811.811,0,0,1,.123.94c-.143.409-.47.082-.675,0C361.892,20.214,360.4,17.986,360.4,14.92Z" transform="translate(-286.731 -7.664)" fill="#8a8a8b"/>
      <path id="Path_1399" data-name="Path 1399" d="M1.165,1.492,1.247,14.1a.2.2,0,0,1-.2.2H.2a.2.2,0,0,1-.2-.2V.2A.2.2,0,0,1,.2,0H1.472a.343.343,0,0,1,.286.2L4.579,6.827,7.359.2A.343.343,0,0,1,7.645,0H8.912a.2.2,0,0,1,.2.2V14.1a.2.2,0,0,1-.2.2H8.074a.2.2,0,0,1-.2-.2l.1-12.612L5.335,8.074c-.082.184-.184.2-.225.2H4.129c-.041,0-.164-.02-.245-.2Z" fill="#8a8a8b"/>
      <path id="Path_1400" data-name="Path 1400" d="M62.143,0a.269.269,0,0,1,.245.2l3.884,13.961c.041.143-.123.143-.123.143h-1c-.061,0-.143-.061-.184-.2L63.492,8.933H59L57.483,14.1c-.041.143-.123.2-.184.2h-1s-.164,0-.123-.143L60.12.2a.253.253,0,0,1,.225-.2ZM59.3,7.727h3.884L61.469,1.186H61.1Z" transform="translate(-44.687)" fill="#8a8a8b"/>
      <path id="Path_1401" data-name="Path 1401" d="M121.125,0c2.923,0,4.027,1.983,4.027,4.477V9.832c0,2.494-1.1,4.477-4.027,4.477H117.2V0Zm-2.678,1.186V13.123h2.678c1.737,0,2.78-1,2.78-3.291V4.477c0-2.289-1.042-3.291-2.78-3.291h-2.678Z" transform="translate(-93.243)" fill="#8a8a8b"/>
      <path id="Path_1402" data-name="Path 1402" d="M170.1,0h7.216a.187.187,0,0,1,.2.184V1a.18.18,0,0,1-.184.184h-5.989V6.521h4.538a.187.187,0,0,1,.2.184v.818a.18.18,0,0,1-.184.184h-4.558v5.417h5.969a.187.187,0,0,1,.2.184v.818a.18.18,0,0,1-.184.184H170.1Z" transform="translate(-135.33)" fill="#8a8a8b"/>
      <path id="Path_1403" data-name="Path 1403" d="M247.168,10.139a3.888,3.888,0,0,1-4.15,4.17H239.4V0h3.393c2.76,0,3.966,1.574,3.966,3.7A2.848,2.848,0,0,1,244.8,6.664C246.554,7.073,247.168,8.442,247.168,10.139Zm-6.521-3.945h1.8c1.921,0,3.066-.879,3.066-2.494,0-1.635-.838-2.514-2.719-2.514h-2.146V6.194Zm0,1.145v5.785h2.371a2.686,2.686,0,0,0,2.9-2.944c0-2.33-1.349-2.841-3.087-2.841h-2.187Z" transform="translate(-190.464)" fill="#8a8a8b"/>
      <path id="Path_1404" data-name="Path 1404" d="M282.117.2c-.061-.164.02-.2.1-.2h.981c.061,0,.164,0,.225.2l3.311,8.34h.2L289.9.2c.061-.2.164-.2.225-.2h.981c.082,0,.164.041.1.2L286.2,14.1c-.061.2-.164.2-.225.2h-.961c-.082,0-.164-.041-.1-.2l1.513-4.19h-.245s-.143,0-.225-.2Z" transform="translate(-224.432 0)" fill="#8a8a8b"/>
      <path id="Path_1405" data-name="Path 1405" d="M466.647,14.1a.187.187,0,0,1-.184.2H465.6a.2.2,0,0,1-.2-.2V.2a.187.187,0,0,1,.184-.2h.859a.2.2,0,0,1,.2.2V6.3h5.621V.2a.187.187,0,0,1,.184-.2h.859a.2.2,0,0,1,.2.2V14.1a.187.187,0,0,1-.184.2h-.859a.2.2,0,0,1-.2-.2V7.481h-5.621Z" transform="translate(-370.267)" fill="#8a8a8b"/>
      <path id="Path_1406" data-name="Path 1406" d="M523.7,14.1a.2.2,0,0,1-.2.2h-.8a.187.187,0,0,1-.184-.2v-.715a2.715,2.715,0,0,1-2.289,1.063A3.123,3.123,0,0,1,517.1,11.14V7.4c0-1.9,1.063-3.455,3.209-3.455a2.817,2.817,0,0,1,2.208.94V.2A.187.187,0,0,1,522.7,0h.818a.189.189,0,0,1,.184.2Zm-1.186-6.7a2.1,2.1,0,0,0-2.208-2.31c-1.37,0-2.024.92-2.024,2.31V11.14a2.116,2.116,0,1,0,4.231,0Z" transform="translate(-411.399)" fill="#8a8a8b"/>
      <path id="Path_1407" data-name="Path 1407" d="M569.961,11.9c.45.777.9,1.288,1.492,1.288h.327a.2.2,0,0,1,.2.2v.695s0,.225-.2.225h-.45c-1.1,0-1.738-.634-2.6-2.105L565.894,7.3l-1.247,1.778V14.1a.187.187,0,0,1-.184.2h-.879a.187.187,0,0,1-.184-.2V.2a.187.187,0,0,1,.184-.2h.859a.2.2,0,0,1,.2.2V7.113L569.553.2a.343.343,0,0,1,.286-.2h.981s.245,0,.123.2l-4.17,6.03Z" transform="translate(-448.235)" fill="#8a8a8b"/>
    </g>
  </g>
</svg>
