<svg xmlns="http://www.w3.org/2000/svg" viewBox="0 0 469.293 142">
  <g data-name="S3A LOGO BLK" transform="translate(1.9)">
    <circle data-name="Ellipse 1" cx="14.546" cy="14.546" r="14.546" transform="translate(214.39 56.28)" fill="#fff"/>
    <g data-name="Group 1" transform="translate(82.78 59.224)">
      <path data-name="Path 1" d="M47,34.2H65.01v5.368H58.949V59.31H53.234V39.568H47Z" transform="translate(-47 -34.2)" fill="#fff"/>
      <path data-name="Path 2" d="M66,34.2h5.715V49.612a4.717,4.717,0,0,0,1.212,3.463,4.434,4.434,0,0,0,3.29,1.385,4.757,4.757,0,0,0,5.022-5.022V34.373h5.715V50.651a9.274,9.274,0,0,1-1.212,4.5A7.816,7.816,0,0,1,82.1,58.617a11.369,11.369,0,0,1-5.541,1.212c-3.637,0-6.407-1.039-7.966-2.944A9.014,9.014,0,0,1,66,50.824V34.2Z" transform="translate(-33.098 -34.2)" fill="#fff"/>
      <path data-name="Path 3" d="M87.7,34.2h9.178a12.683,12.683,0,0,1,9.351,3.463,12,12,0,0,1,3.637,9.178,12.261,12.261,0,0,1-3.637,9.178,13.976,13.976,0,0,1-9.871,3.463H87.7V34.2Zm5.715,4.676V54.461h2.251a8.335,8.335,0,0,0,5.888-1.9c1.559-1.212,2.251-3.29,2.251-6.061a8.436,8.436,0,0,0-1.039-4.329,5.807,5.807,0,0,0-3.117-2.6,11.364,11.364,0,0,0-3.983-.693Z" transform="translate(-17.22 -34.2)" fill="#fff"/>
      <path data-name="Path 4" d="M109.3,34.2h5.715V59.31H109.3Z" transform="translate(-1.415 -34.2)" fill="#fff"/>
    </g>
    <g data-name="Group 3" transform="translate(258.376 59.398)">
      <g data-name="Group 2">
        <path data-name="Path 5" d="M153.6,41.846h-5.2a7.6,7.6,0,0,1,2.6-5.368,8.3,8.3,0,0,1,5.715-2.078,10.645,10.645,0,0,1,6.234,1.9,5.5,5.5,0,0,1,2.6,4.676,6.84,6.84,0,0,1-3.117,5.368,10.972,10.972,0,0,1,2.944,2.424,4.727,4.727,0,0,1,.866,3.117,7.2,7.2,0,0,1-2.424,5.541A9.5,9.5,0,0,1,157.4,59.51a9.74,9.74,0,0,1-6.061-1.9,8.7,8.7,0,0,1-2.944-5.541h5.368c.693,2.251,1.9,3.463,3.637,3.463a3.292,3.292,0,0,0,2.251-.866,2.868,2.868,0,0,0,.866-2.251,3.446,3.446,0,0,0-1.212-2.771,4.073,4.073,0,0,0-2.944-1.039h-1.039V44.444h.52a4.953,4.953,0,0,0,2.944-.866,2.792,2.792,0,0,0,1.039-2.251,3.647,3.647,0,0,0-.866-2.251,3.292,3.292,0,0,0-2.251-.866Q154.115,38.47,153.6,41.846Z" transform="translate(-148.4 -34.227)" fill="#fff"/>
        <path data-name="Path 6" d="M177.69,34.3h4.5L193.1,59.41h-5.715l-2.078-5.022H175.093l-2.078,5.022H167.3Zm2.078,8.312-3.117,7.446h6.407Z" transform="translate(-134.571 -34.3)" fill="#fff"/>
        <path data-name="Path 7" d="M190.8,34.3h8.832a10.437,10.437,0,0,1,6.407,1.9,6.7,6.7,0,0,1,2.251,5.368,9.1,9.1,0,0,1-1.039,3.983,7.752,7.752,0,0,1-3.983,3.29l7.446,10.563h-6.581l-6.927-9.7h-.693v9.7H190.8Zm5.888,4.5v6.58H197.9c2.944,0,4.5-1.212,4.5-3.463a2.524,2.524,0,0,0-1.212-2.251,6.16,6.16,0,0,0-3.29-.866Z" transform="translate(-117.376 -34.3)" fill="#fff"/>
        <path data-name="Path 8" d="M210.3,34.3h18.01v5.368h-6.061V59.41h-5.715V39.668h-6.061V34.3Z" transform="translate(-103.107 -34.3)" fill="#fff"/>
      </g>
    </g>
    <g data-name="Group 5" transform="translate(-1.9 58.532)">
      <g data-name="Group 4">
        <path data-name="Path 9" d="M66.329,46.1c-.693-.346-1.559-.866-2.6-1.385l6.234-7.273L68.927,36.4h-.173a11.151,11.151,0,0,0-7.446-2.6,8.883,8.883,0,0,0-6.061,2.078A6.944,6.944,0,0,0,53,41.246a5.692,5.692,0,0,0,.693,2.944,5.97,5.97,0,0,0,1.732,2.251,6.23,6.23,0,0,0,1.559.866L-1.9,115.19l2.424,2.078L53,56.832A11.843,11.843,0,0,0,60.1,59.6a9.95,9.95,0,0,0,6.58-2.424,7.043,7.043,0,0,0,2.771-5.715,7.163,7.163,0,0,0-.866-3.29A26.635,26.635,0,0,0,66.329,46.1Zm-7.62-5.022a1.688,1.688,0,0,1,.693-1.559,3.077,3.077,0,0,1,1.732-.693,8.074,8.074,0,0,1,2.771.866l-3.29,3.81C59.4,42.8,58.71,41.939,58.71,41.073Zm3.637,12.468a3.6,3.6,0,0,1-2.078.866,6.41,6.41,0,0,1-3.81-1.559L60.1,48.693c2.078.866,3.117,1.9,3.117,2.944A1.851,1.851,0,0,1,62.346,53.541Z" transform="translate(1.9 -33.8)" fill="#fff"/>
      </g>
    </g>
    <g data-name="Group 7" transform="translate(395.7)">
      <g data-name="Group 6">
        <path data-name="Path 10" d="M242.939,70.654a11.529,11.529,0,0,0-2.078-1.039L299.393,2.251,296.968,0,244.5,60.437a10.657,10.657,0,0,0-6.58-2.078,8.883,8.883,0,0,0-6.061,2.078A6.944,6.944,0,0,0,229.6,65.8a5.692,5.692,0,0,0,.693,2.944A5.97,5.97,0,0,0,232.029,71a9.263,9.263,0,0,0,2.251,1.039l-6.581,7.62,1.039,1.039h0c2.6,2.251,5.2,3.463,7.966,3.463a9.95,9.95,0,0,0,6.581-2.424,7.043,7.043,0,0,0,2.771-5.715,7.163,7.163,0,0,0-.866-3.29A12.833,12.833,0,0,0,242.939,70.654Zm-7.62-5.2a1.688,1.688,0,0,1,.693-1.559,3.077,3.077,0,0,1,1.732-.693,6.974,6.974,0,0,1,3.29,1.212l-3.29,3.81C236.185,67.363,235.32,66.5,235.32,65.459ZM238.956,78.1a3.6,3.6,0,0,1-2.078.866,5.536,5.536,0,0,1-3.29-1.212l3.637-4.156c1.732.866,2.6,1.732,2.6,2.771C240,76.888,239.649,77.407,238.956,78.1Z" transform="translate(-227.7)" fill="#fff"/>
      </g>
    </g>
  </g>
</svg>