<?xml version="1.0" encoding="utf-8"?>
<!-- Generator: Adobe Illustrator 25.2.0, SVG Export Plug-In . SVG Version: 6.00 Build 0)  -->
<svg version="1.1" id="Layer_1" xmlns="http://www.w3.org/2000/svg" xmlns:xlink="http://www.w3.org/1999/xlink" x="0px" y="0px"
	 viewBox="0 0 500 500" style="enable-background:new 0 0 500 500;" xml:space="preserve">
<g>
	<path d="M76.99979,58.26868c-80.30959,71.28916-87.64827,194.62436-16.3591,274.93396
		c64.04016,72.14334,170.08229,85.40158,249.20425,35.66693l98.63965,111.12079c11.75342,13.2406,32.0188,14.44644,45.2594,2.69302
		c13.2406-11.75339,14.44641-32.0188,2.69302-45.2594l-98.63965-111.12079c58.76633-72.66594,58.17654-179.53207-5.86362-251.67542
		C280.64459-5.6818,157.30937-13.02048,76.99979,58.26868z M297.45551,306.61929
		c-56.63397,50.2728-143.59955,45.09818-193.87234-11.5358s-45.09818-143.59955,11.53577-193.87234
		s143.59955-45.09818,193.87234,11.53578S354.08945,256.34647,297.45551,306.61929z"/>
</g>
</svg>
