<svg version="1.1" id="Layer_1" xmlns:svg="http://www.w3.org/2000/svg" xmlns="http://www.w3.org/2000/svg" xmlns:xlink="http://www.w3.org/1999/xlink" x="0" y="0" viewBox="0 0 92 90" xml:space="preserve">
  <style>
    .svglime{fill:#95c11f}
  </style>
  <path class="svglime" d="M47.2 90h-2.4c-.2 0-.3-.1-.5-.1-1.9-.1-3.7-.3-5.5-.5-4.1-.7-8-1.9-11.8-3.6C10.8 78.2.4 61.7 1.1 43.3c.1-2.5.4-5.1.9-7.6 1.7-8 5.3-15.1 10.9-21.2C20.9 5.8 30.9 1 42.6 0c2.4-.2 4.8-.2 7.2 0 2.5.2 4.9.6 7.3 1.2 13.7 3.4 25.1 13.3 30.5 26.3 1.4 3.3 2.3 6.7 2.9 10.2.3 1.8.5 3.6.5 5.5 0 .1 0 .3.1.4V46c0 .1 0 .3-.1.4-.1 1.6-.2 3.2-.4 4.8-.4 3.5-1.4 6.8-2.6 10-5 12.7-15.3 22.3-28.3 26.4-2.5.8-5.1 1.4-7.8 1.7-1.4.2-2.8.2-4.2.3-.3.4-.4.4-.5.4zM17.3 73.9c.2-.1.3-.1.4-.1 4.9-1.6 9.8-3.1 14.7-4.7.3-.1.6-.1.9.1.8.4 1.6.8 2.4 1.1 3.1 1.3 6.4 2.1 9.8 2.1 2 .1 4.1-.1 6.1-.5 3.1-.6 6.1-1.6 8.9-3.2 4.2-2.4 7.5-5.8 10-9.8 2.7-4.3 4.1-9 4.1-14 0-2.3-.2-4.5-.7-6.7-.7-3.5-2-6.7-4-9.6-5.1-7.2-12-11.4-20.8-12.3-2.7-.3-5.3-.1-7.9.4-6.7 1.3-12.2 4.6-16.5 9.8-3.9 4.6-5.9 10-6.3 16-.2 2.4 0 4.8.4 7.1.6 3.2 1.7 6.1 3.3 8.9.2.3.2.5.1.8-1.4 4-2.7 8.1-4.1 12.1-.2.8-.5 1.6-.8 2.5z"/>
  <path class="svglime" d="M24.6 66.7c.2-.7.4-1.3.7-2l2.1-6.3c.1-.3.1-.5-.1-.8-2-2.9-3.3-6.1-3.9-9.5-.3-2-.4-4-.2-6.1.8-9.1 7.1-17.5 17-20.4 2.7-.8 5.4-1 8.2-.8 6 .5 11.1 3 15.2 7.3 3.2 3.4 5.2 7.4 6 12 2 11.4-4.6 22.5-15.5 26.3-1.9.7-4 1-6 1.2-5.1.4-9.7-.9-14-3.5-.3-.2-.6-.3-1-.1-2.7.9-5.4 1.7-8 2.6-.2 0-.3 0-.5.1zm7.8-29.2c0 1.7.5 3.3 1.3 4.9 1.8 3.3 3.9 6.4 6.6 9.1 1.8 1.7 3.7 3.3 6 4.3 1.9.8 3.7 1.6 5.7 2.3.7.2 1.4.4 2.1.4 2.1 0 4-.7 5.6-2.1.4-.3.7-.8.9-1.3.5-.9.6-2 .7-3 0-.2-.1-.4-.2-.5-.1-.2-.3-.3-.5-.4l-3.3-1.8c-.8-.4-1.6-.8-2.5-1.2-.5-.3-.9-.2-1.3.3l-.4.4-2.1 2.4c-.4.5-.7.5-1.3.3-.2-.1-.5-.2-.7-.3-3-1.4-5.5-3.4-7.4-6.1-.6-.8-1.1-1.7-1.6-2.6-.3-.5-.2-.8.2-1.3.2-.2.4-.4.6-.7.5-.6.9-1.2 1.4-1.8.3-.4.3-.9.1-1.4-.7-1.8-1.3-3.5-2-5.3-.1-.3-.3-.7-.5-1-.1-.3-.4-.4-.7-.4-.6 0-1.2-.1-1.9-.1-.6 0-1.2.2-1.6.6-2.1 1.5-3.2 3.7-3.2 6.3z"/>
</svg>